# xmcd CD database file
#
# Track frame offsets:
#	150
#	15955
#	28350
#	42107
#	57440
#	65170
#	80754
#	99919
#	117885
#	134959
#	152244
#	165494
#	190190
#	209504
#	229442
#
# Disc length: 3340 seconds
#
# Revision: 0
# Processed by: cddbd v1.5.1PL0 Copyright (c) Steve Scherf et al.
# Submitted via: CDex 1.50beta9
#
DISCID=d80d0a0f
DTITLE=Tal Farlow - The fastest Guitar Player of his Era, CD 3
DYEAR=1900
DGENRE=Jazz
TTITLE0=Ev'rything I've got
TTITLE1=This Love Nest
TTITLE2=With The  Wind And The Raind in Your Hair
TTITLE3=Little Girl Blue
TTITLE4=Autumn Leaves
TTITLE5=It's You Or No One
TTITLE6=I Remember You
TTITLE7=How Deep Is The Ocean
TTITLE8=There Will Never Be Another You
TTITLE9=Fascinating Rhythm
TTITLE10=Tea For Two
TTITLE11=Out Of Nowhere
TTITLE12=Lorinesque
TTITLE13=Moonlight Becomes You
TTITLE14=The Way You Look Tonight
EXTD=
EXTT0=
EXTT1=
EXTT2=
EXTT3=
EXTT4=
EXTT5=
EXTT6=
EXTT7=
EXTT8=
EXTT9=
EXTT10=
EXTT11=
EXTT12=
EXTT13=
EXTT14=
PLAYORDER=
